<?xml version="1.0" encoding="utf-8"?>
<!-- Generator: Adobe Illustrator 17.0.0, SVG Export Plug-In . SVG Version: 6.00 Build 0)  -->
<!DOCTYPE svg PUBLIC "-//W3C//DTD SVG 1.1//EN" "http://www.w3.org/Graphics/SVG/1.1/DTD/svg11.dtd">
<svg version="1.1" id="Слой_1" xmlns="http://www.w3.org/2000/svg" xmlns:xlink="http://www.w3.org/1999/xlink" x="0px" y="0px"
	 width="200px" height="65px" viewBox="0 0 200 65" enable-background="new 0 0 200 65" xml:space="preserve">
<rect x="19" y="24" fill="#BFBFBF" width="25" height="2"/>
<rect x="19" y="31" fill="#BFBFBF" width="25" height="2"/>
<rect x="19" y="38" fill="#BFBFBF" width="25" height="2"/>
<rect x="22" y="22" fill="#BFBFBF" width="6" height="6"/>
<rect x="36" y="29" fill="#BFBFBF" width="6" height="6"/>
<rect x="28" y="36" fill="#BFBFBF" width="6" height="6"/>
<g>
	<path fill="#BFBFBF" d="M88.886,31.82c0,2.711-2.084,4.18-4.794,4.18h-0.184c-2.711,0-4.848-1.47-4.848-4.18L78,24.908
		C78,22.197,81.197,20,83.908,20h0.184C86.803,20,90,22.197,90,24.908L88.886,31.82z"/>
</g>
<path fill="#BFBFBF" d="M94.362,38.635c-1.21-1.423-5.754-2.971-7.239-1.839c-1.33,1.014-2.24,1.244-3.123,1.043
	c-1,0.201-1.633-0.028-2.964-1.043c-1.485-1.132-5.87,0.416-7.08,1.839c-1.025,1.206-3.617,5.037-3.023,5.646
	c0.394,0.404,5.932,5.604,12.815,5.724L79.452,39h1.472c0.454,0.604,1.689,1.04,3.158,1.04s2.704-0.436,3.158-1.04h1.248
	l-4.297,11.008c7.553-0.082,12.639-5.322,13.035-5.727C97.82,43.672,95.387,39.841,94.362,38.635z"/>
<g>
	<path fill="#BFBFBF" d="M83.893,50.574c-10.342,0-18.755-8.413-18.755-18.754s8.413-18.755,18.755-18.755
		c10.341,0,18.754,8.414,18.754,18.755S94.233,50.574,83.893,50.574z M83.893,14.065c-9.79,0-17.755,7.965-17.755,17.755
		s7.965,17.754,17.755,17.754c9.789,0,17.754-7.964,17.754-17.754S93.682,14.065,83.893,14.065z"/>
</g>
<g>
	<path fill="#272425" d="M121.782,27.59c0.408-0.005,0.803,0.073,1.174,0.233c0.841,0.362,1.647,0.347,2.51-0.008
		c1.274-0.525,2.421-0.204,3.409,0.742c0.216,0.207,0.288,0.313-0.023,0.537c-1.66,1.196-1.487,3.715,0.322,4.681
		c0.313,0.167,0.348,0.282,0.195,0.583c-0.403,0.79-0.849,1.548-1.444,2.207c-0.79,0.876-1.407,1.01-2.477,0.54
		c-0.835-0.367-1.656-0.332-2.465,0.059c-0.828,0.4-1.594,0.291-2.208-0.37c-1.663-1.789-2.534-3.876-2.149-6.355
		C118.87,28.864,120.314,27.598,121.782,27.59z"/>
	<path fill="#272425" d="M123.811,27.27c0.028-1.209,1.189-2.495,2.388-2.662c0.221-0.031,0.261,0.062,0.279,0.243
		c0.12,1.204-1.072,2.682-2.276,2.815C123.822,27.709,123.801,27.688,123.811,27.27z"/>
</g>
<g>
	<linearGradient id="SVGID_1_" gradientUnits="userSpaceOnUse" x1="148.9817" y1="25.3542" x2="149.3449" y2="31.8924">
		<stop  offset="0" style="stop-color:#1F7BAF"/>
		<stop  offset="0.0256" style="stop-color:#5BCAAD"/>
		<stop  offset="1" style="stop-color:#D6FFA1"/>
	</linearGradient>
	<path fill="url(#SVGID_1_)" d="M153.204,29.892l-7.674-4.204c-0.095-0.075-0.215-0.122-0.348-0.122
		c-0.055,0-0.107,0.01-0.157,0.024l6.243,6.195L153.204,29.892z"/>
	<linearGradient id="SVGID_2_" gradientUnits="userSpaceOnUse" x1="147.4303" y1="25.4433" x2="148.0897" y2="37.3112">
		<stop  offset="0" style="stop-color:#1F7BAF"/>
		<stop  offset="1" style="stop-color:#63FFD4"/>
	</linearGradient>
	<path fill="url(#SVGID_2_)" d="M145.025,25.59c-0.224,0.064-0.387,0.259-0.387,0.492c0,0.012,0.003,0.023,0.004,0.034l-0.024,0.003
		v11.437l0.021-0.004c0,0.001,0,0.003,0,0.004c0,0.192,0.112,0.357,0.276,0.446l6.355-6.218L145.025,25.59z"/>
	<linearGradient id="SVGID_3_" gradientUnits="userSpaceOnUse" x1="148.8547" y1="31.9196" x2="149.1842" y2="37.8517">
		<stop  offset="0" style="stop-color:#DD4058"/>
		<stop  offset="1" style="stop-color:#A036B8"/>
	</linearGradient>
	<path fill="url(#SVGID_3_)" d="M144.913,38.003c0.08,0.043,0.171,0.07,0.269,0.07c0.141,0,0.268-0.052,0.365-0.135l7.689-4.201
		l-1.967-1.951L144.913,38.003z"/>
	<linearGradient id="SVGID_4_" gradientUnits="userSpaceOnUse" x1="153.6213" y1="29.8693" x2="153.8344" y2="33.7037">
		<stop  offset="0" style="stop-color:#FF9576"/>
		<stop  offset="1" style="stop-color:#FFCB74"/>
	</linearGradient>
	<path fill="url(#SVGID_4_)" d="M156.188,31.825c0-0.199-0.121-0.37-0.295-0.456l0-0.002l-2.69-1.474l-1.935,1.893l1.967,1.951
		l2.684-1.467l0-0.002C156.08,32.178,156.188,32.015,156.188,31.825z"/>
</g>
<polygon fill="#FFCC00" points="172,16 172,48 180.932,32 "/>
</svg>
